<?xml version="1.0" encoding="utf-8"?>
<!-- Generator: Adobe Illustrator 15.0.0, SVG Export Plug-In . SVG Version: 6.00 Build 0)  -->
<!DOCTYPE svg PUBLIC "-//W3C//DTD SVG 1.1//EN" "http://www.w3.org/Graphics/SVG/1.1/DTD/svg11.dtd">
<svg version="1.1" id="Capa_1" xmlns="http://www.w3.org/2000/svg" xmlns:xlink="http://www.w3.org/1999/xlink" x="0px" y="0px"
	 width="60px" height="60px" viewBox="20 20 60 60" enable-background="new 20 20 60 60" xml:space="preserve">
<path fill="#344A5E" d="M25.178,80h17.298c0.371-3.954,0.618-10.255-1.236-14.333c-2.842-6.549-15.445-2.595-16.557-2.101
	c0,0-0.742,5.807-0.742,8.896C23.942,74.192,24.684,77.405,25.178,80z"/>
<path fill="#F3705A" d="M34.197,26.622c-1.729,0-3.212,0.741-4.201,1.854v6.178c0.988,1.112,2.595,1.854,4.201,1.854
	c1.977,0,3.831-0.989,4.695-2.471v-4.942C37.904,27.611,36.174,26.622,34.197,26.622z"/>
<path id="SVGCleanerId_0" fill="#FFD15C" d="M38.646,37.372l-1.112,6.795l-7.537,0.248l-0.618-6.549l2.471-1.73l0,0
	c0.124-0.494,0-0.988-0.247-1.359c-0.494-0.865-1.235-2.471-1.359-4.572c-0.371-3.459-0.371-3.459-0.371-3.459
	s4.078-3.336,5.808-2.224s2.224,3.46,2.224,3.46s-0.124,3.707-0.494,4.942c-0.371,1.359-0.495,1.606-0.495,1.606L38.646,37.372z"/>
<g>
	<path id="SVGCleanerId_0_1_" fill="#FFD15C" d="M38.646,37.372l-1.112,6.795l-7.537,0.248l-0.618-6.549l2.471-1.73l0,0
		c0.124-0.494,0-0.988-0.247-1.359c-0.494-0.865-1.235-2.471-1.359-4.572c-0.371-3.459-0.371-3.459-0.371-3.459
		s4.078-3.336,5.808-2.224s2.224,3.46,2.224,3.46s-0.124,3.707-0.494,4.942c-0.371,1.359-0.495,1.606-0.495,1.606L38.646,37.372z"/>
</g>
<path fill="#F7B64C" d="M31.603,34.777c0,0,0.741,1.854,2.348,1.73s2.719-1.606,2.965-1.977c0,0-0.124,2.471-2.718,3.707
	c-2.595,1.235-4.572,0.865-4.572,0.865L31.603,34.777z"/>
<path fill="#F3F3F3" d="M29.502,41.079c2.595,1.482,5.313,0.988,8.773-0.247l-1.854,21.994c-2.101,0.864-8.031,1.235-9.514-0.247
	L29.502,41.079z"/>
<ellipse fill="#66C6B9" cx="25.301" cy="51.334" rx="1.606" ry="4.572"/>
<path fill="#344A5E" d="M26.537,43.797l-1.482,5.807l-1.73-0.247c0,0,1.235-6.796,1.359-8.649c0.124-1.73,1.359-2.595,1.359-2.595
	L26.537,43.797z"/>
<path fill="#4ABAA5" d="M29.626,37.001c0,0-2.101,0.741-2.719,0.865c-0.618,0.124-1.606,0.494-1.606,1.977
	c0,1.482,0,3.83-0.124,5.313c-0.123,1.482,0.371,12.108-0.371,15.321c-0.741,3.212-1.112,5.066-1.112,5.066s1.854,1.729,4.572,0.864
	c0,0,3.212-2.348,2.595-10.008c-0.618-7.661-1.483-11.244-1.483-14.21C29.502,39.349,29.626,37.001,29.626,37.001z"/>
<path fill="#66C6B9" d="M30.12,37.001l-0.865,2.842c0,0-1.977,3.83-0.494,8.278c1.482,4.449,2.101,6.548,2.101,8.402
	c0,0,0.371-1.606-0.124-4.201c-0.495-2.594-0.865-6.178,0-10.75C31.603,37.001,30.12,37.001,30.12,37.001z"/>
<path fill="#4ABAA5" d="M38.398,36.507c0,0,4.078,1.606,6.549,2.101s-2.348,28.666-2.348,28.666l-5.931,0.37
	c-2.1-0.37-3.459-1.112-4.201-2.224c0,0-1.854-4.819,0-14.827C33.58,45.156,38.398,38.731,38.398,36.507z"/>
<path fill="#FFD15C" d="M31.232,54.423c0,0,2.224-0.247,3.212-0.494c0.989-0.247,2.718-0.741,2.718-0.741l0.618,3.707
	c0,0-2.966,0.247-4.201,0.741c-1.236,0.494-3.583,0.618-3.583,0.618L31.232,54.423z"/>
<path fill="#66C6B9" d="M37.163,35.518c0,0,0.495,2.225-0.247,4.325c-0.741,2.1-4.201,7.414-4.448,10.75
	c0,0,0.618-2.224,1.482-3.336c0.865-1.112,5.684-5.808,5.684-5.808l-0.989-1.482l1.236-0.371c0,0-0.247-1.977-0.741-2.594
	C38.769,36.26,37.286,35.766,37.163,35.518z"/>
<path fill="#F3705A" d="M34.815,25.387c0,0-1.853-0.495-2.842,0.865c-0.988,1.359-1.606,4.695-1.606,6.055
	c0,1.359,1.854,2.595,1.977,4.695c0,2.101-2.224,3.336-2.718,6.178c-0.495,2.718,0,3.831,0,3.831s-1.73-2.595-1.606-4.201
	c0-1.606,0.371-2.965,0-4.942s-0.989-4.572-0.371-7.414c0.618-2.842,2.471-9.514,7.414-8.032c0,0,1.606-0.741,2.718,1.854
	s1.606,3.954,1.854,5.56c0.247,1.606,0,7.908,0.494,9.638c0.494,1.729,1.483,3.954,1.483,3.954s-2.348-2.842-2.842-4.078
	c-0.495-1.235-1.73-4.572-1.73-4.818c0,0,1.112-2.225,0.988-4.201C37.904,28.352,35.804,26.128,34.815,25.387z"/>
<path fill="#66C6B9" d="M31.355,55.288c-0.371,0.988-0.371,4.572-0.371,4.572s0,0-0.124,0c-0.494,0-3.583-0.247-5.931-0.495
	c-1.606-0.123-2.842-0.247-3.089-0.247c-0.618-0.123-1.236-0.988-1.359-2.347c-0.247-1.483-0.124-2.596,0-3.831
	c0.124-1.235,1.112-4.325,1.359-4.942s0.247-1.606,0.371-2.101c0.124-0.495,0.865-3.46,1.73-5.313
	c0.865-1.854,2.1-2.348,2.224-2.348c-0.495,0.247-0.865,0.741-0.865,1.606c0,1.606,0,3.83-0.124,5.313c-0.124,0.494,0,2.224,0,4.448
	l0,0l-0.371,4.449h0.371l5.437,0.123h1.236C31.85,54.3,31.85,54.3,31.355,55.288z"/>
<path fill="#F3705A" d="M67.188,34.901c-0.247,1.235-0.617,2.347-1.111,3.459c-0.124,0.247-0.248,0.618-0.371,0.988
	c-0.124,0.247-0.247,0.618-0.494,0.865c0,0.124-0.124,0.124-0.124,0.247s-0.123,0.124-0.123,0.247
	c-0.124,0.124-0.247,0.247-0.37,0.371c-0.125,0.124-0.248,0.247-0.371,0.371c-0.124,0.124-0.124,0.247-0.247,0.371
	c-0.124,0.247-0.247,0.618-0.371,0.865c-0.123,0.618-0.247,1.235-0.247,1.73c0,0.494,0,0.865,0,1.235c0,0.247,0,0.494,0,0.494
	s0-0.124,0-0.494c0-0.247,0-0.741,0-1.235c0-0.495,0-1.112,0.124-1.73c0.123-0.371,0.123-0.618,0.247-0.989
	c0.123-0.124,0.123-0.371,0.247-0.494c0.123-0.124,0.247-0.247,0.37-0.371l0.123-0.124c-0.37,0.247-0.617,0.494-0.864,0.865
	c-0.247,0.371-0.37,0.742-0.37,1.236c-0.495,2.224-1.607,4.324-3.213,5.931c0.247-1.112,0-2.471,0.371-3.583
	c0.123-0.495,0.494-0.988,0.617-1.483c0.124-0.247,0.124-0.618,0.247-0.988c0.37-1.977,0.865-3.954,1.854-5.808
	c0.247-0.371,0.494-0.865,0.618-1.235c0.247-0.618,0.37-1.359,0.494-1.977c0.123-0.741,0.246-1.606,0.371-2.348l1.977-0.371
	C67.312,32.182,67.436,33.542,67.188,34.901z"/>
<path fill="#FFD15C" d="M66.199,25.016c0,0-1.358,1.359-1.605,1.853c-0.125,0.494-0.248,1.977-0.248,1.977s0.248,1.112,0.124,1.359
	c-0.124,0.371-0.124,2.348,0.617,3.707c0.741,1.359,1.236,2.224,1.483,2.471c-1.235,2.719-1.977,6.425-2.348,10.503l0.123,1.853
	l7.661-11.244l2.224-8.649l-4.818-4.201L66.199,25.016z"/>
<path fill="#F7B64C" d="M69.288,35.889c-1.729,1.235-2.842,0.494-2.842,0.494l-0.493,2.224c3.582-0.989,5.313-4.325,5.313-4.325
	S71.019,34.653,69.288,35.889z"/>
<path fill="#344A5E" d="M59.156,80h15.322c0.617-3.212,1.729-10.502,0.988-14.951c-0.988-5.684,0.988-21.87,0.988-21.87
	s-3.46-5.931-5.561-6.425c0,0-3.336,6.919-5.56,10.503c0,0-1.359-3.336-0.866-4.572c0.495-1.236,0.618-3.583,0.495-4.572
	c-0.123-0.989,1.112-0.989,1.112-0.989s-0.618,0.371-1.482,0.618l0,0c-0.371,3.089-2.595,5.684-3.707,8.525
	c-0.618,1.482-1.112,3.089-1.359,4.572c-0.247,1.235-0.617,2.595-1.112,3.707c0,4.201-0.123,8.155-0.37,9.267
	c0,0,0,8.773,0.494,11.861C58.662,77.405,58.91,78.888,59.156,80z"/>
<g>
	<path fill="#4ABAA5" d="M67.559,67.273c-0.865,0-1.606-0.617-1.606-1.606c-0.124-2.595-0.371-8.896-0.741-10.379
		c-0.494-1.854,0.741-10.502,1.112-11.615c0.494-1.112,4.571-7.043,4.571-7.043s5.313,1.977,6.426,2.595
		c1.111,0.618,1.111,0.618,1.111,0.618s-3.83,12.85-2.471,16.556c1.359,3.707,1.606,8.649,1.606,8.649
		C74.354,66.408,71.019,67.149,67.559,67.273z"/>
	<path fill="#4ABAA5" d="M65.953,38.484c0,0-0.866,2.965-0.989,5.313c0,2.348-2.101,7.908-2.225,10.008
		c-0.123,1.607-0.74,5.561-1.853,8.65c-0.494,1.234-2.225,1.482-2.966,0.247l-2.224-3.707c0,0,2.842-17.546,4.818-19.646
		C62.616,37.372,65.953,38.484,65.953,38.484z"/>
</g>
<path fill="#F3705A" d="M67.683,25.51c0,0,3.212,0.865,3.583,1.977c0.371,1.112,0.371,2.1,0.618,2.347
	c0.246,0.248,0.987-0.865,1.235-0.617c0.37,0.247,0.37,1.977-0.618,2.965c-0.988,0.988-1.359,2.594-1.606,4.448
	c-0.247,1.853,0.124,2.718-0.247,3.212c-0.37,0.494-1.853,3.83-2.101,4.818c-0.123,0.989,0.248,2.842,0.865,4.325
	c0.617,1.482,0.37,2.965,0.37,2.965s1.236-2.471,1.112-3.46c0-0.989-0.494-1.73-0.247-2.842c0.371-1.112,2.719-4.942,2.842-5.684
	c0.124-0.742,1.236-2.348,1.359-5.19s-0.247-7.167-1.235-9.144c-1.112-1.977-2.595-2.718-4.325-2.471c0,0-0.864-0.618-2.718,0.494
	c-1.729,1.112-2.472,3.831-2.348,5.313c0,0,0.123-1.112,0.371-1.853C64.964,26.251,65.953,25.387,67.683,25.51z"/>
<ellipse transform="matrix(-0.2231 0.9748 -0.9748 -0.2231 118.4134 -33.9626)" fill="#FFD15C" cx="72.741" cy="30.206" rx="1.359" ry="0.865"/>
<path fill="#F3705A" d="M63.357,36.63c0,0.124-0.123,0.124-0.123,0.247c-0.989,1.73-1.482,3.831-1.854,5.808
	c-0.124,0.371-0.124,0.617-0.247,0.988c-0.124,0.494-0.494,0.988-0.618,1.483c-0.371,1.112-0.123,2.471-0.371,3.583
	c1.607-1.606,2.719-3.707,3.213-5.931c0.124-0.371,0.247-0.865,0.371-1.235c0.247-0.371,0.617-0.618,0.865-0.865l-0.124,0.124
	c-0.124,0.124-0.247,0.247-0.371,0.371c-0.123,0.124-0.123,0.248-0.247,0.495c-0.123,0.247-0.247,0.618-0.247,0.865
	c-0.123,0.618-0.123,1.236-0.123,1.73s0,0.988,0,1.236c0,0.247,0,0.494,0,0.494s0-0.124,0-0.494c0-0.247,0-0.742,0-1.236
	s0.123-1.112,0.247-1.73c0.123-0.247,0.123-0.618,0.37-0.865c0.124-0.124,0.124-0.247,0.247-0.371
	c0.124-0.124,0.248-0.247,0.371-0.371c0.124-0.124,0.247-0.247,0.37-0.371c0-0.124,0.124-0.124,0.124-0.248s0.124-0.124,0.124-0.247
	c0.247-0.247,0.37-0.618,0.493-0.865c0.125-0.371,0.248-0.618,0.372-0.988c0.246-0.618,0.37-1.483,0.37-1.977L63.357,36.63z"/>
<path fill="#66C6B9" d="M71.76,45.897c0,0,0.124-2.101,2.348-4.325s3.089-2.348,4.572-2.1c1.359,0.371,0.987,2.842,0.741,4.448
	c-0.371,1.606-0.247,3.954-1.112,5.189c-0.865,1.236-1.729,3.089-2.224,3.954c-0.495,0.866-3.214,4.078-3.954,4.942
	c-0.742,0.865-1.854,1.978-3.336,1.978c-1.483,0-5.809-0.123-5.809-0.123s-0.987-2.596,0-4.325c0,0,3.46-0.123,3.831-0.123
	c0.37,0,0.495-0.248,0.618-0.495s0.494-0.247,0.741-0.617s1.606-2.348,1.729-2.595C70.029,51.581,71.76,46.762,71.76,45.897z"/>
<path fill="#FFD15C" d="M54.584,29.587c0,0-0.37,2.101-0.864,2.965v4.695l-3.459,3.46l-3.831-3.954v-3.83
	c0,0-0.741-2.471-0.741-3.831s-0.371-2.842,0-3.954c0.371-1.112,0.618-2.965,1.482-3.336c0.865-0.371,6.055-0.371,6.549,0
	c0.741,0.494,1.235,2.348,1.235,3.089S54.584,29.587,54.584,29.587z"/>
<path fill="#F7B64C" d="M50.631,35.271c-1.854,0.494-3.954-1.977-4.201-2.224v3.83c1.483,0.247,6.425,0.495,7.29-4.324
	C53.72,32.553,52.484,34.901,50.631,35.271z"/>
<g>
	
		<ellipse transform="matrix(-0.122 0.9925 -0.9925 -0.122 90.017 -22.191)" fill="#FFD15C" cx="54.824" cy="28.72" rx="1.853" ry="0.741"/>
	
		<ellipse transform="matrix(-0.1219 -0.9925 0.9925 -0.1219 22.6839 77.3553)" fill="#FFD15C" cx="45.561" cy="28.643" rx="1.853" ry="0.742"/>
</g>
<path fill="#415A6B" d="M45.565,27.981h0.247c0,0-0.247-1.73,0.124-2.224c0.371-0.495,0.618-1.73,0.618-2.348
	c0-0.618,0.371-1.236,1.112-1.236s5.066,0.494,5.807,0.247s0.988,0.495,0.988,0.989c0,0.494-0.123,1.729,0.123,2.224
	c0.248,0.495,0,2.225,0,2.225h0.248c0,0,0.494-1.483,0.494-2.595c0-1.112-0.247-3.583-2.842-4.818
	c-2.595-1.236-5.189,0.371-6.178,1.606C45.318,23.163,45.194,26.499,45.565,27.981z"/>
<path fill="#CED6E0" d="M54.214,36.013c0,0,1.978,0.989,3.707,1.359c1.606,0.371,5.561,1.853,5.931,2.595
	c0.494,0.741,0.494,0.741,0.494,0.741s-2.842,21.005-3.089,23.106c-0.247,2.1-1.977,5.807-1.977,5.807s-3.46,3.46-8.031,3.46
	c-4.695,0-10.132-2.472-10.874-3.831c-0.742-1.359-1.359-5.065-1.112-6.425s-2.595-20.264-2.595-20.264s0.371-1.482,2.471-2.594
	c2.224-1.112,5.931-2.842,6.549-3.213c0.618-0.371,0.494-0.124,0.494-0.124l2.101,2.348l1.359-0.124l0.618-0.124l2.719-0.371
	L54.214,36.013z"/>
<g>
	<path fill="#F3705A" d="M48.53,39.596c1.236-0.494,2.595-0.371,4.078,0c-0.741,0.865-1.236,1.606-1.73,2.471
		c-0.494-0.247-1.112-0.247-1.729,0c-0.124-0.988-0.248-1.482-0.989-2.1"/>
	<path fill="#F3705A" d="M50.508,41.326l0.247,0.865c0,0,0.37,2.471,0.37,3.831c0,1.236-1.112,23.971-1.112,23.971
		s-1.854,1.729-1.854,1.605c0-0.123-1.235-1.729-1.235-1.729s1.235-18.534,1.606-22.364c0.371-3.831,0.495-5.189,0.495-5.189
		L50.508,41.326z"/>
</g>
<g>
	<path fill="#F3F3F3" d="M53.72,35.024c0,0-0.123,1.482-3.336,3.583c0,0,1.112,1.236,1.358,1.977
		c0.248,0.741,0.372,0.865,0.372,0.865s1.729-2.471,2.224-3.336c0.371-0.741,0.371-1.73,0.246-2.224
		C54.338,35.642,53.72,35.024,53.72,35.024z"/>
	<path fill="#F3F3F3" d="M49.89,38.731c0,0-1.236,1.359-1.606,2.842c0,0-1.359-1.729-1.606-2.1
		c-0.247-0.371-1.359-2.101-0.247-3.954C46.43,35.518,47.295,37.619,49.89,38.731z"/>
	<path fill="#F3F3F3" d="M62.616,38.978c0,0-1.112,2.348-2.224,5.684c-1.112,3.336-1.73,7.538-1.73,8.402c0,0.865,0,2.596,0,2.842
		c0,0.248-0.123,0.124-0.617,0.124s-4.325,0.124-5.931,0.247c-1.606,0.124-3.708,0.37-3.708,0.37s-0.247,2.349,0,4.078l3.831,1.112
		c0,0,0.247,0.494,1.235,0.494s1.978-0.124,3.337-0.371c1.358-0.123,5.065,0.247,5.807,0.124c0.741-0.124,2.101-2.719,2.472-4.695
		c0.494-1.977,1.358-10.626,0.123-14.827C63.976,38.484,62.616,38.978,62.616,38.978z"/>
</g>
<path fill="#FFD15C" d="M51.99,53.805c0,0,2.224-0.247,3.089-0.617c0.864-0.37,2.224-0.494,2.842-0.865
	c0.617-0.37,1.606-0.617,2.101-0.741c0.494-0.123,1.112-0.494,1.482-0.618c0.371-0.123,0.618-0.123,1.112-0.123
	s2.348-0.124,2.471,0.371c0.124,0.494-0.493,0.741-0.741,0.741c-0.247,0-1.482,0-1.977,0.123c-0.494,0.124-1.359,0.495-1.359,0.495
	s1.112-0.124,1.606-0.124s0.741,0.124,1.235,0.124s1.359,0.247,1.359,0.247s0.617,0,0.617,0.617c0,0.618-0.494,0.495-0.987,0.37
	c-0.495-0.123-1.236-0.247-1.606-0.247c-0.371,0-0.989,0-0.989,0s1.112,0.124,1.483,0.247c0.37,0.125,0.865,0.248,1.235,0.248
	c0.371,0,0.741,0.247,0.617,0.741c-0.123,0.494-0.617,0.37-0.987,0.247c-0.371-0.124-1.236-0.247-1.73-0.247s-2.101,0-2.101,0h0.124
	c0,0,2.225,0,2.842,0.123c0.494,0.124,0.741,0.124,0.741,0.495c0,0.37-0.494,0.37-0.865,0.37c-0.37,0-2.224,0-2.718,0.124
	c-0.494,0.247-1.483,0.494-2.595,0.494c-1.236,0-2.842,0-3.708,0.371c-0.74,0.37-1.977,0.864-1.977,0.864L51.99,53.805z"/>
<path fill="#F3F3F3" d="M41.364,47.133c0,0,1.112-6.425-3.336-6.548c-2.471-0.124-2.471,7.167-2.718,9.02
	c-0.124,1.854-0.247,6.178,0.741,9.267c0.989,3.089,2.101,3.336,3.583,3.213c1.483-0.124,5.931-0.741,7.414-1.359
	c1.483-0.494,6.425-2.966,6.425-2.966s-1.358-2.965-1.235-3.954c0,0-3.707,0.989-3.831,0.989c-0.247,0-1.236-0.494-2.224-0.371
	c-1.112,0.247-4.819,0.494-4.819,0.494s0.865-3.336,0.494-5.189C41.487,47.875,41.364,47.133,41.364,47.133z"/>
<path fill="#FFD15C" d="M41.364,54.917c0,0-1.235,0.247-1.606,0.247c-0.371,0-1.606-0.247-1.853-0.37
	c-0.247-0.124-0.494-0.865,0.124-0.865s0.988,0.371,1.977,0.371c0.988,0.123,0.988,0.123,0.988,0.123s-0.247-0.123-0.494-0.247
	c-0.247-0.123-1.359-0.371-1.606-0.371c-0.247,0-1.73-0.123-1.977-0.247c-0.247-0.123-0.494-0.246-0.371-0.617
	c0.124-0.37,0.371-0.37,0.865-0.37c0.494,0.123,0.988,0.123,1.482,0.123s1.112,0.124,1.483,0.247
	c0.371,0.124,0.865,0.247,0.865,0.247s-0.371-0.247-0.494-0.247s-0.989-0.37-1.112-0.494c-0.124,0-2.1-0.247-2.1-0.247
	s-0.989,0-0.989-0.618s1.606-0.493,1.854-0.37c0.247,0,1.854,0.123,1.854,0.123s-1.112-0.246-1.359-0.371
	c-0.124,0-1.359,0.125-1.112-0.988h1.359c0,0,0.617,0.124,0.988,0.124c0.371,0.124,0.988,0.247,1.235,0.371
	c0.248,0.124,1.854,1.359,1.854,1.359s0.371,0.247,0.618,0.618s1.359,2.101,1.359,2.101L41.364,54.917z"/>
<path fill="#415A6B" d="M61.875,80c0-0.494,0.124-1.112,0.124-2.101c0.246-2.842-2.225-9.638-2.225-9.638
	c-6.796,4.942-13.345,4.572-19.893,0c0,0-0.618,5.065-1.236,7.414c-0.247,1.112-0.247,2.718-0.247,4.201L61.875,80L61.875,80z"/>
</svg>
