<?xml version="1.0" encoding="utf-8"?>
<!-- Generator: Adobe Illustrator 15.0.0, SVG Export Plug-In . SVG Version: 6.00 Build 0)  -->
<!DOCTYPE svg PUBLIC "-//W3C//DTD SVG 1.1//EN" "http://www.w3.org/Graphics/SVG/1.1/DTD/svg11.dtd">
<svg version="1.1" id="Calque_1" xmlns="http://www.w3.org/2000/svg" xmlns:xlink="http://www.w3.org/1999/xlink" x="0px" y="0px"
	 width="300px" height="100px" viewBox="-100 0 300 100" enable-background="new -100 0 300 100" xml:space="preserve">
<g>
	<path fill="#FFFFFF" d="M114.371,89.673c-0.225,0.41-0.613,1.309-0.822,1.738c2.74,3.945,9.518,6.289,17.271,7.676
		c4.141-1.563,5.527-3.027,7.129-4.492c-7.754-0.215-16.934-1.504-23.574-4.922H114.371z"/>
	<path fill="#FFFFFF" d="M115.977,83.618c-0.137,0.879-0.313,1.758-0.527,2.656c7.012,3.75,19.16,5.039,27.48,4.805
		c5.898-2.422,8.105-4.844,9.688-8.125C140.449,84.536,128.867,84.946,115.977,83.618z"/>
	<path fill="#FFFFFF" d="M135.41,33.677c-8.691,4.609-16.309,9.336-21.896,13.516c-2.795,2.109-5.084,4.063-6.73,5.742
		c-1.646,1.699-2.613,3.184-2.861,3.965c-1.766,5.605-0.668,11.27,0.338,16.543c1.865,9.844-0.631,17.363-4.488,24.668
		c4.93-1.113,8.859-3.867,11.133-9.18c1.654-3.867,1.783-7.227,2.232-11.25s1.26-8.633,4.383-14.297l0.039-0.078l0.039-0.078
		c1.719-2.461,5.117-4.336,9.766-6.523c4.629-2.188,10.469-4.492,16.797-6.855c12.461-4.648,26.797-9.512,37.129-13.926
		c3.906-5.879,6.641-14.5,8.711-22.344C172.305,16.729,151.914,24.942,135.41,33.677z"/>
	<path fill="#FFFFFF" d="M116.602,78.071c-0.078,0.684-0.137,1.387-0.215,2.07c14.141,1.465,26.621,0.781,40.273-1.27
		c6.367-4.395,9.727-9.688,11.27-15.098c-15.43,6.289-35.547,10.41-50.938,11.445C116.816,76.196,116.699,77.134,116.602,78.071z"/>
	<path fill="#FFFFFF" d="M128.848,59.868c-4.414,2.09-7.52,4.219-8.32,5.313c-1.328,2.402-2.168,4.531-2.734,6.504
		c16.289-1.27,38.145-6.211,52.988-13.008c5.352-5.801,7.207-11.66,8.477-18.105c-10.098,4.102-22.773,8.418-33.887,12.559
		C139.082,55.474,133.301,57.759,128.848,59.868z"/>
	<path fill="#FFFFFF" d="M-16.949,79.809c-0.078-0.684-0.137-1.387-0.215-2.07c-0.098-0.938-0.215-1.875-0.391-2.852
		c-15.391-1.035-35.508-5.156-50.938-11.445c1.543,5.41,4.902,10.703,11.27,15.098C-43.57,80.59-31.09,81.273-16.949,79.809z"/>
	<path fill="#FFFFFF" d="M-16.539,83.285c-12.891,1.328-24.473,0.918-36.641-0.664c1.582,3.281,3.789,5.703,9.688,8.125
		c8.32,0.234,20.469-1.055,27.48-4.805C-16.227,85.043-16.402,84.164-16.539,83.285z"/>
	<path fill="#FFFFFF" d="M-21.09,64.848c-0.801-1.094-3.906-3.223-8.32-5.313c-4.453-2.109-10.234-4.395-16.523-6.738
		c-11.113-4.141-23.789-8.457-33.887-12.559c1.27,6.445,3.125,12.305,8.477,18.105c14.844,6.797,36.699,11.738,52.988,13.008
		C-18.922,69.379-19.762,67.25-21.09,64.848z"/>
	<path fill="#FFFFFF" d="M-4.822,73.109c1.006-5.273,2.104-10.938,0.338-16.543c-0.248-0.781-1.215-2.266-2.861-3.965
		c-1.646-1.68-3.936-3.633-6.73-5.742c-5.588-4.18-13.205-8.906-21.896-13.516c-16.504-8.734-36.895-16.947-54.59-20.098
		c2.07,7.844,4.805,16.465,8.711,22.344c10.332,4.414,24.668,9.277,37.129,13.926c6.328,2.363,12.168,4.668,16.797,6.855
		c4.648,2.188,8.047,4.063,9.766,6.523l0.039,0.078l0.039,0.078c3.123,5.664,3.934,10.273,4.383,14.297s0.578,7.383,2.232,11.25
		c2.273,5.313,6.203,8.066,11.133,9.18C-4.191,90.473-6.688,82.953-4.822,73.109z"/>
	<path fill="#FFFFFF" d="M-14.938,89.34c-6.641,3.418-15.82,4.707-23.574,4.922c1.602,1.465,2.988,2.93,7.129,4.492
		c7.754-1.387,14.531-3.73,17.271-7.676c-0.209-0.43-0.598-1.328-0.822-1.738H-14.938z"/>
</g>
</svg>
